<svg width="256" height="256" viewBox="0 0 256 256" fill="none" xmlns="http://www.w3.org/2000/svg">
  <defs>
    <linearGradient id="bg" x1="32" y1="24" x2="224" y2="232" gradientUnits="userSpaceOnUse">
      <stop stop-color="#2A2A2A"/>
      <stop offset="1" stop-color="#0B0B0B"/>
    </linearGradient>
    <linearGradient id="accent" x1="70" y1="42" x2="202" y2="210" gradientUnits="userSpaceOnUse">
      <stop stop-color="#FF4C4C"/>
      <stop offset="1" stop-color="#C30010"/>
    </linearGradient>
    <filter id="shadow" x="0" y="0" width="256" height="256" filterUnits="userSpaceOnUse" color-interpolation-filters="sRGB">
      <feDropShadow dx="0" dy="8" stdDeviation="10" flood-color="#000000" flood-opacity="0.55"/>
    </filter>
  </defs>

  <g filter="url(#shadow)">
    <rect x="20" y="20" width="216" height="216" rx="44" fill="url(#bg)"/>
    <rect x="24" y="24" width="208" height="208" rx="40" stroke="#404040" stroke-width="2"/>
  </g>

  <rect x="52" y="56" width="152" height="144" rx="20" fill="url(#accent)"/>
  <rect x="66" y="70" width="124" height="116" rx="14" fill="#111111" opacity="0.86"/>

  <circle cx="80" cy="84" r="8" fill="#FF5E5E"/>
  <circle cx="80" cy="128" r="8" fill="#FF5E5E"/>
  <circle cx="80" cy="172" r="8" fill="#FF5E5E"/>
  <circle cx="176" cy="84" r="8" fill="#FF5E5E"/>
  <circle cx="176" cy="128" r="8" fill="#FF5E5E"/>
  <circle cx="176" cy="172" r="8" fill="#FF5E5E"/>

  <path d="M112 101L156 128L112 155V101Z" fill="#FFFFFF"/>
  <rect x="52" y="56" width="152" height="144" rx="20" stroke="#FF8585" stroke-width="2"/>
</svg>
